<?xml version="1.0" encoding="UTF-8"?>
<!DOCTYPE svg PUBLIC "-//W3C//DTD SVG 1.1//EN" "http://www.w3.org/Graphics/SVG/1.1/DTD/svg11.dtd">
<!-- Creator: CorelDRAW X7 -->
<svg xmlns="http://www.w3.org/2000/svg" xml:space="preserve" width="1.58326in" height="2.41558in" version="1.1" style="shape-rendering:geometricPrecision; text-rendering:geometricPrecision; image-rendering:optimizeQuality; fill-rule:evenodd; clip-rule:evenodd"
viewBox="0 0 123 187"
 xmlns:xlink="http://www.w3.org/1999/xlink">
 <defs>
  <style type="text/css">
   <![CDATA[
    .fil0 {fill:#FEFEFE}
    .fil1 {fill:#C09F5E}
   ]]>
  </style>
 </defs>
 <g id="Layer_x0020_1">
  <metadata id="CorelCorpID_0Corel-Layer"/>
  <path class="fil0" d="M0 166l0 -145c0,-12 9,-21 21,-21l81 0c11,0 21,9 21,21l0 145c0,12 -10,21 -21,21l-81 0c-12,0 -21,-9 -21,-21z"/>
  <path class="fil1" d="M61 89c3,0 5,2 5,5 0,2 -2,4 -5,4 -2,0 -4,-2 -4,-4 0,-3 2,-5 4,-5zm-1 -5c0,-4 4,3 -3,2 -5,0 -1,-3 -3,-5 0,1 0,1 0,1 -2,7 6,5 7,4 4,-4 -3,-4 -1,-2zm3 0c-1,-4 -5,3 3,2 5,0 1,-3 3,-5 0,1 -1,1 0,1 1,7 -6,5 -7,4 -5,-4 3,-4 1,-2zm-11 6c-3,-3 5,-2 1,4 -3,4 -4,-1 -6,0 0,0 0,0 1,0 5,5 7,-2 7,-4 -2,-6 -6,1 -3,0zm19 0c3,-3 -6,-2 -1,4 3,4 4,-1 6,0 -1,0 -1,0 -1,0 -5,5 -8,-2 -7,-4 2,-6 5,1 3,0zm-17 10c-4,1 0,-6 3,1 2,5 -2,3 -3,5 1,0 1,0 1,-1 7,-1 2,-7 0,-7 -6,-2 -2,4 -1,2zm15 0c4,1 -1,-6 -4,1 -1,5 3,3 4,5 -1,0 -1,0 -2,-1 -6,-1 -1,-7 1,-7 6,-2 2,4 1,2zm-6 3c-1,4 -5,-3 3,-2 5,1 1,4 3,5 0,0 -1,-1 0,-1 1,-7 -6,-5 -7,-4 -5,4 3,4 1,2zm-3 0c0,4 4,-3 -3,-2 -5,1 -1,4 -3,5 0,0 0,-1 0,-1 -2,-7 6,-5 7,-4 4,4 -3,4 -1,2zm11 -6c3,3 -6,2 -1,-4 3,-3 4,1 6,1 -1,-1 -1,-1 -1,-1 -5,-5 -8,2 -7,4 2,6 5,-1 3,0zm-19 0c-3,3 5,2 1,-4 -3,-3 -4,1 -6,1 0,-1 0,-1 1,-1 5,-5 7,2 7,4 -2,6 -6,-1 -3,0zm17 -10c4,-1 -1,6 -4,-1 -1,-4 3,-3 4,-5 -1,0 -1,0 -2,1 -6,2 -1,7 1,8 6,1 2,-5 1,-3zm-15 0c-4,-1 0,6 3,-1 2,-4 -2,-3 -3,-5 1,0 1,0 1,1 7,2 2,7 0,8 -6,1 -2,-5 -1,-3zm6 -2c-2,-4 2,-4 1,-7 -1,2 -5,5 -1,7zm3 0c2,-4 -2,-4 -2,-7 1,2 5,5 2,7zm-10 6c-5,-1 -2,-4 -5,-5 1,2 1,6 5,5zm17 0c4,-1 1,-4 5,-5 -2,2 -2,6 -5,5zm-15 9c-3,3 -5,-1 -7,1 3,0 6,2 7,-1zm13 0c3,3 4,-1 7,1 -3,0 -7,2 -7,-1zm-5 2c2,4 -2,4 -2,7 1,-2 5,-5 2,-7zm-3 0c-2,4 2,4 1,7 -1,-2 -5,-5 -1,-7zm10 -6c4,1 1,4 5,5 -2,-2 -2,-6 -5,-5zm-17 0c-5,1 -2,4 -5,5 1,-2 1,-6 5,-5zm15 -8c3,-4 4,0 7,-2 -3,0 -7,-2 -7,2zm-13 0c-3,-4 -5,0 -7,-2 3,0 6,-2 7,2zm6 -5c0,-1 0,-2 -1,-2 0,1 0,1 1,2zm0 0c0,-1 1,-2 2,-2 -1,1 -1,1 -2,2zm-9 5c-1,-1 -1,0 -2,1 1,0 1,0 2,-1zm19 0c1,-1 1,0 2,1 -1,0 -2,0 -2,-1zm-19 11c-1,0 -1,1 -1,2 1,-1 1,-1 1,-2zm19 0c1,0 1,1 0,2 0,-1 0,-1 0,-2zm-10 6c0,1 1,1 2,1 -1,-1 -1,-1 -2,-1zm0 0c0,1 0,1 -1,1 0,-1 0,-1 1,-1zm10 -6c1,1 1,0 2,0 -1,-1 -2,-1 -2,0zm-19 0c-1,1 -1,0 -2,0 1,-1 1,-1 2,0zm19 -11c1,0 1,-1 0,-2 0,1 0,1 0,2zm-19 0c-1,0 -1,-1 -1,-2 1,1 1,1 1,2zm9 -5c1,-2 1,-1 0,-3 0,2 0,1 0,3zm0 0c0,-2 0,-1 0,-3 1,2 1,1 0,3zm-9 5c-1,-1 -1,-1 -2,-1 1,1 0,1 2,1zm19 0c1,-1 0,-1 2,-1 -1,1 -1,1 -2,1zm-19 11c-2,0 -1,0 -2,1 1,0 1,0 2,-1zm19 0c1,0 1,0 2,1 -2,0 -1,0 -2,-1zm-10 6c0,1 0,0 0,2 1,-2 1,-1 0,-2zm0 0c1,1 1,0 0,2 0,-2 0,-1 0,-2zm10 -6c1,1 0,1 2,1 -1,-1 -1,-1 -2,-1zm-19 0c-1,1 -1,1 -2,1 1,-1 0,-1 2,-1zm19 -11c1,0 1,0 2,-1 -2,0 -1,0 -2,1zm-19 0c-2,0 -1,0 -2,-1 1,0 1,0 2,1zm14 -2c2,-2 1,-1 2,-4 -2,3 -1,1 -2,4zm-9 0c-2,-2 -1,-1 -2,-4 2,3 1,1 2,4zm0 0c-1,-3 0,-1 -2,-4 1,3 0,2 2,4zm9 0c1,-3 0,-1 2,-4 -1,3 0,2 -2,4zm-13 8c-3,-1 -2,-1 -5,0 3,0 2,0 5,0zm17 0c3,-1 1,-1 4,0 -3,0 -1,0 -4,0zm-13 7c-2,2 -1,1 -2,4 2,-2 1,-1 2,-4zm9 0c2,2 1,1 2,4 -2,-2 -1,-1 -2,-4zm0 0c1,3 0,2 2,4 -1,-3 0,-2 -2,-4zm-9 0c-1,3 0,2 -2,4 1,-3 0,-2 2,-4zm13 -7c3,0 1,0 4,0 -3,-1 -1,-1 -4,0zm-17 0c-3,0 -2,0 -5,0 3,-1 2,-1 5,0zm13 -8c0,-2 0,-2 0,-3 -1,1 -1,1 0,3zm-9 0c0,-2 -1,-2 0,-3 1,1 1,1 0,3zm0 0c-1,-1 -1,-1 -2,-2 0,2 0,2 2,2zm9 0c1,-1 1,-1 2,-2 0,2 0,2 -2,2zm-14 8c-1,0 -1,0 -2,1 1,0 2,0 2,-1zm18 0c2,0 2,0 3,1 -2,0 -2,0 -3,-1zm-13 8c0,1 -1,1 0,2 1,-1 1,-1 0,-2zm9 0c0,1 0,1 0,2 -1,-1 -1,-1 0,-2zm0 -1c1,1 1,1 2,2 0,-2 0,-2 -2,-2zm-9 0c-1,1 -1,1 -2,2 0,-2 0,-2 2,-2zm13 -8c2,0 2,0 3,-1 -2,0 -2,0 -3,1zm-18 0c-1,0 -1,0 -2,-1 1,0 2,0 2,1zm7 -7c0,0 1,0 1,-1 -1,0 -1,0 -1,1zm5 0c-1,0 -1,0 -2,-1 1,0 2,0 2,1zm-11 6c1,0 1,-1 0,-2 0,1 0,1 0,2zm16 0c0,0 0,-1 0,-2 1,1 1,1 0,2zm-13 8c0,-1 -1,-2 -2,-1 1,1 1,1 2,1zm11 0c0,-1 0,-2 1,-1 0,1 0,1 -1,1zm-3 1c-1,0 -1,0 -2,1 1,0 2,0 2,-1zm-5 0c0,0 1,0 1,1 -1,0 -1,0 -1,-1zm10 -6c0,0 0,1 0,2 1,-1 1,-1 0,-2zm-16 0c1,0 1,1 0,2 0,-1 0,-1 0,-2zm14 -8c0,1 0,2 1,1 0,0 0,-1 -1,-1zm-11 0c0,1 -1,2 -2,1 1,0 1,-1 2,-1zm2 -4c0,-3 3,-4 2,-5 -1,1 -4,3 -2,5zm7 0c-1,-3 -3,-4 -2,-5 0,1 3,3 2,5zm-15 8c-2,-1 -1,-4 -3,-4 1,1 1,5 3,4zm23 0c1,-1 1,-4 3,-4 -1,1 -1,5 -3,4zm-19 11c-3,1 -5,-1 -6,0 2,1 5,2 6,0zm15 0c2,1 4,-1 5,0 -1,1 -4,2 -5,0zm-4 2c-1,3 -3,4 -2,5 0,-1 3,-3 2,-5zm-7 0c0,3 3,4 2,5 -1,-1 -4,-3 -2,-5zm15 -8c1,1 1,4 3,4 -1,-1 -1,-5 -3,-4zm-23 0c-2,1 -1,4 -3,4 1,-1 1,-5 3,-4zm19 -11c2,-1 4,1 5,0 -1,0 -4,-2 -5,0zm-15 0c-3,-1 -5,1 -6,0 2,0 5,-2 6,0zm-1 -1c1,-1 1,-2 1,-3 -1,1 -2,2 -1,3zm16 0c0,-1 0,-2 0,-3 1,1 1,2 0,3zm-20 12c0,-1 -1,-2 -2,-2 0,1 1,2 2,2zm24 0c1,-1 2,-2 3,-2 0,1 -1,2 -3,2zm-16 9c-1,0 -2,1 -3,1 2,1 3,1 3,-1zm8 0c1,0 2,1 3,1 -1,1 -2,1 -3,-1zm4 -2c0,1 0,2 0,3 1,-1 1,-2 0,-3zm-16 0c1,1 1,2 1,3 -1,-1 -2,-2 -1,-3zm20 -12c1,1 2,2 3,2 0,-1 -1,-2 -3,-2zm-24 0c0,1 -1,2 -2,2 0,-1 1,-2 2,-2zm16 -9c1,0 2,-1 3,-1 -1,-1 -2,0 -3,1zm-8 0c-1,0 -2,-1 -3,-1 2,-1 3,0 3,1zm16 36c0,1 0,4 0,5 7,4 6,-6 0,-9 7,12 -3,-4 -1,-4 1,0 2,1 2,1 3,2 5,5 6,8 2,5 -2,9 -8,6 -1,1 -4,2 -6,0 -1,0 -1,-1 -2,-1 0,-1 0,-1 0,-2l-2 -8c0,-1 1,-1 1,-2l1 0c0,0 0,0 0,0l0 1 0 1 1 4c0,1 1,2 1,3 2,5 6,2 7,-3zm7 23c-3,1 -6,0 -7,-3 -1,-2 -1,-4 -2,-6 0,-1 1,-3 2,-4 0,2 1,5 2,7 1,2 2,3 4,4 2,0 13,-5 11,-8 -1,-1 -2,-1 -2,1 0,0 0,0 0,0 -1,0 -1,0 -1,0 0,0 0,0 0,-1 0,-1 0,-2 0,-3 2,-2 3,-2 4,0 1,1 2,1 2,2 2,4 -8,10 -13,11zm-11 -9c0,0 0,0 0,0l0 0 -1 0c0,0 -1,0 -1,0 1,2 2,5 3,7 1,4 1,6 -7,6l-4 0c0,0 0,0 0,0l-2 0c0,0 0,0 0,0l0 0c4,-1 7,-1 9,-2 1,-1 1,-2 1,-4 0,0 0,-2 0,-3 -1,-2 -2,-4 -2,-5 0,-3 4,0 4,1zm-7 -5c0,0 0,0 0,0 0,0 0,0 0,0l0 0c-1,1 -1,1 -1,1 0,0 0,0 0,0l-1 0 0 0c1,0 1,0 1,0 1,0 1,0 1,-1zm1 0l0 0 0 0c0,0 0,0 0,0l-1 0c0,1 0,1 0,1 0,0 0,0 0,0 0,0 0,0 -1,1 0,0 0,0 -1,0l0 1 0 0c0,0 0,0 0,0l0 -1 0 0c0,0 -1,0 -1,0l-1 0c0,0 0,0 0,0 0,0 0,0 0,0 0,0 0,0 0,0l0 -1c-1,0 -1,0 -1,0 0,0 0,0 1,0l0 0c0,0 1,0 1,1 0,0 1,0 1,0 0,-1 0,-1 0,-1 0,0 0,0 0,0 0,0 0,0 0,0 0,0 0,0 1,0 0,0 0,0 0,0 0,-1 0,-1 0,-1 0,0 0,0 0,0l0 0 0 0 0 -1c0,0 0,0 0,0 0,0 0,0 0,-1 0,0 0,0 0,0 0,0 0,0 0,0 0,0 0,0 0,0 0,0 0,0 0,0 0,0 0,0 0,0 -1,1 -1,1 -1,1 0,0 0,0 0,0 0,0 0,0 0,0l0 0 0 -1 1 0 0 0 0 -1 0 0c0,0 0,0 0,0 0,0 0,0 0,0 0,0 0,0 0,0 1,0 1,1 0,2l0 0 0 1 0 0c0,0 0,0 1,0 0,0 0,0 0,0l0 0 1 0c0,0 0,0 0,0 0,0 0,0 0,0zm-1 12c-1,1 -2,2 -3,3 -1,1 -3,2 -5,2 -1,1 -7,-1 -8,-2l-1 0c-1,0 -1,0 -1,0l0 0c0,0 0,0 0,0 2,0 3,0 4,0l2 0c0,0 1,0 1,0 3,0 7,-1 9,-3 1,-1 2,-2 2,-3 0,0 0,0 0,0 0,-1 0,-1 0,-1 -1,-3 -4,-3 -6,-3 -1,0 -1,0 -2,1 0,0 0,0 0,0 -1,0 -1,0 -1,0 0,0 0,0 0,0l1 2c1,1 1,1 2,2 0,1 0,3 -1,4 0,0 0,0 0,0 0,0 0,-1 0,-1l0 0c0,0 0,-1 0,-1 -1,0 -1,-1 -3,-3 0,-1 -1,-2 -1,-2l0 -1c0,0 1,0 1,-1 0,-1 0,-1 1,-1 0,-1 2,-1 4,-1 2,0 3,0 4,0 1,1 2,2 2,3 0,1 0,4 -1,6zm-12 -6c0,1 0,1 -1,2 -1,1 -2,2 -3,3 -2,1 -5,1 -8,0 -3,0 -4,-1 -6,-3 -1,-4 0,-7 2,-9 2,-3 6,-6 8,-8l0 2c0,3 -7,5 -8,9 -1,2 -1,3 0,4 1,1 3,2 4,2l1 1c2,0 4,0 6,-1 2,-1 3,-2 4,-3 0,0 -1,-1 -1,-1 -1,-1 -1,-1 -2,-1l-1 0c-2,-1 -3,-1 -4,0 1,1 2,1 3,1l0 1c0,1 0,1 -1,2l0 0c-1,0 -2,0 -2,-1l-2 0c0,0 0,0 -1,0 0,-1 0,-1 0,-1 0,0 1,-1 1,-2l1 -2c1,-1 1,-1 2,-2 1,0 2,0 4,0 1,1 2,1 3,2 1,1 2,3 2,4 0,0 -1,1 -1,1zm21 -5c-1,3 -1,2 -4,1l2 -2c0,0 2,1 2,1zm17 -3c0,0 -1,0 -1,0l0 0 -1 -1c0,0 0,0 -1,0 0,0 0,1 0,2 0,3 1,7 -2,9 0,1 -2,1 -3,1 1,-1 2,-1 3,-3 1,-2 0,-7 0,-9 0,-1 0,-1 0,-1 0,-4 4,1 5,2zm-5 3c0,0 0,0 -1,0l0 0 0 0c0,0 -1,0 -1,0 0,0 0,0 0,1 0,2 0,5 -2,7 0,0 -1,1 -2,0 1,0 1,-1 2,-2 1,-2 0,-5 0,-6 0,-1 0,-1 0,-2 0,-2 4,1 4,2zm-21 -7c0,1 -1,1 -1,2 -1,1 -2,2 -4,3 -2,1 -4,1 -8,0 -2,0 -4,-1 -5,-3 -2,-4 0,-8 3,-9 1,-1 2,-2 4,-3l0 1c-1,2 -1,2 -2,3 -2,1 -3,2 -4,3 0,1 0,2 1,3 1,1 2,2 4,2l0 1c2,0 4,0 7,-1 2,-1 3,-2 3,-3 0,0 0,-1 -1,-1 0,-1 -1,-1 -1,-1l-2 0c-1,-1 -3,-1 -4,0 2,1 3,1 4,1l0 1c0,1 -1,1 -1,2l-1 0c0,0 -1,0 -1,-1l-3 0c0,0 0,0 0,0 0,-1 0,-1 0,-1 0,0 0,-1 1,-2l1 -2c0,-1 1,-1 2,-2 1,0 2,0 3,0 1,1 3,1 4,2 1,1 1,3 1,4 0,0 0,1 0,1zm8 -5c-1,0 -1,-1 -1,-1 -1,0 -1,-1 -2,-1 0,0 0,1 0,1 0,0 0,1 0,1 0,0 0,0 0,0 1,0 1,0 1,0 1,0 2,1 2,2 0,0 0,-1 0,-2 0,-1 0,-1 0,-2 0,0 1,0 1,0 0,-1 -1,-2 -2,0 0,0 0,0 0,0 0,1 1,2 1,2zm-20 -47c0,-1 0,-4 0,-5 -7,-3 -7,7 -1,9 -6,-12 4,4 1,4 0,0 -1,0 -1,-1 -4,-2 -6,-5 -7,-8 -1,-5 3,-9 8,-6 1,-1 5,-2 7,0 0,0 1,1 1,1 0,1 1,2 1,3l2 7c-1,1 -1,1 -2,3l0 0c0,0 0,-1 0,-1l0 -1 -1 -1 0 -3c-1,-2 -1,-3 -1,-4 -2,-5 -7,-2 -7,3zm-7 -23c3,-1 5,0 6,3 2,3 2,4 3,6 0,1 -1,3 -2,4 0,-2 -1,-5 -2,-7 -1,-2 -2,-3 -4,-4 -3,0 -13,5 -11,8 1,1 2,1 2,-1 0,0 0,0 0,0 0,0 0,0 0,0 1,0 1,0 1,1 0,1 0,2 -1,3 -1,2 -2,2 -4,0 0,-1 -1,-1 -1,-2 -2,-4 8,-10 13,-11zm10 9c0,0 0,0 1,0l0 0 0 0c1,0 1,0 1,0 0,-2 -1,-5 -2,-7 -2,-4 -1,-6 7,-6l4 0c0,0 0,0 0,0l1 0c1,0 1,0 1,0l0 1c-4,0 -7,0 -9,2 -1,0 -2,1 -2,3 0,0 0,2 1,3 1,2 1,4 2,5 0,3 -4,0 -5,-1zm8 5c-1,0 -1,0 0,0 0,0 0,0 0,0l0 0c0,0 1,-1 1,-1 0,0 0,0 0,0l0 0 0 0c0,0 0,0 -1,0 0,0 0,0 0,1zm-1 0l0 0 0 0c0,0 0,0 0,0l0 0c0,0 0,0 0,-1 0,0 0,0 0,0 0,0 1,0 1,0 1,-1 1,-1 2,-1l0 -1 0 0c0,0 0,0 0,0l0 1 0 0c0,0 0,0 1,0l0 0c0,0 0,0 0,0 0,0 0,0 0,0 0,0 1,0 1,0l0 1c0,0 0,0 0,0 0,0 0,0 0,0l-1 0c0,0 0,0 0,0 -1,0 -1,0 -1,0 0,0 -1,0 -1,0 0,0 0,0 0,0 0,0 0,0 0,0 0,0 0,0 0,0 0,1 0,1 0,1 0,0 0,0 0,0 0,0 0,0 0,0l0 0 0 0 0 1c0,0 0,0 0,0 0,0 -1,0 -1,1 0,0 0,0 0,0 0,0 0,0 0,0 0,0 0,0 1,0 0,0 0,0 0,0 0,0 0,0 0,0 0,-1 0,-1 0,-1 0,0 0,0 0,0 0,0 0,0 0,0l0 0 0 1 0 0 0 0 0 1 0 0c-1,0 -1,0 -1,0 0,0 0,0 0,0 0,0 0,0 0,0 0,0 0,-1 0,-2l0 0 1 -1 0 0c0,0 -1,0 -1,0 0,0 0,0 -1,0l0 0 0 0c0,0 0,0 0,0 0,0 0,0 0,0zm1 -11c0,-2 1,-3 3,-4 1,-1 3,-2 4,-2 2,0 7,1 9,2l1 0c0,0 0,0 0,0l0 1c0,0 0,0 0,0 -1,-1 -2,-1 -3,-1l-2 0c0,0 -1,0 -1,0 -4,0 -7,1 -9,3 -1,1 -2,2 -2,3 0,0 0,0 0,0 0,1 0,1 0,1 1,3 3,3 6,3 0,0 1,0 1,0 1,-1 1,-1 1,-1 0,0 0,0 0,0 0,0 0,0 0,0l-1 -2c0,0 -1,-1 -1,-2 0,-1 0,-3 0,-3 1,0 1,-1 1,0 0,0 0,0 0,0l0 0c0,1 0,1 0,1 0,1 1,1 2,3 1,1 2,2 1,2l0 1c0,0 0,1 0,1 -1,1 -1,1 -1,1 -1,1 -2,1 -4,1 -2,0 -3,0 -4,0 -1,-1 -2,-2 -2,-3 -1,-1 0,-4 1,-5zm12 5c0,-1 0,-1 0,-2 1,-1 2,-2 4,-3 2,-1 5,-1 8,0 2,0 4,1 5,3 2,4 1,7 -1,9 -2,3 -6,6 -8,8l0 -2c0,-3 6,-5 8,-9 1,-1 1,-3 -1,-4 -1,-1 -2,-2 -4,-2l0 -1c-2,0 -4,0 -6,1 -3,1 -4,2 -4,3 0,0 0,1 1,1 0,1 1,1 2,1l1 1c2,0 3,0 4,-1 -2,0 -3,-1 -3,-1l0 -1c0,0 0,-1 0,-2l1 0c1,0 1,1 2,1l2 0c0,0 0,0 0,1 0,0 0,0 0,0 0,0 0,1 0,2l-2 2c0,1 -1,2 -2,2 -1,0 -2,0 -3,0 -1,0 -2,-1 -3,-2 -2,-1 -2,-3 -2,-4 0,0 0,-1 1,-1zm-21 5c1,-3 1,-2 3,-1l-1 2c-1,0 -2,-1 -2,-1zm-17 3c0,0 0,0 0,0l1 0 0 1c1,0 1,0 1,0 0,0 0,-1 0,-2 0,-3 0,-7 2,-9 1,-1 2,-1 4,-1 -2,1 -3,1 -3,3 -1,3 0,7 0,9 0,1 0,1 0,1 0,4 -5,-1 -5,-2zm5 -3c0,0 0,0 0,0l0 0 1 0c0,0 0,0 1,0 0,0 0,0 0,-1 0,-2 -1,-5 1,-7 1,0 2,-1 3,0 -1,0 -2,1 -2,2 -1,2 -1,5 0,7 0,0 0,0 0,1 -1,2 -4,-1 -4,-2zm21 7c0,-1 0,-1 1,-2 1,-1 2,-2 3,-3 2,-1 5,-1 8,0 3,0 5,1 6,3 2,4 0,8 -3,10 -1,0 -2,1 -4,2l0 -1c0,-1 1,-2 2,-3 1,0 3,-2 4,-3 0,-1 0,-2 -1,-3 -1,-1 -3,-2 -4,-2l-1 -1c-2,0 -4,0 -6,1 -2,1 -3,2 -4,3 0,0 1,1 1,1 1,1 1,1 2,1l1 1c2,0 3,0 5,-1 -2,0 -3,-1 -4,-1l0 -1c0,0 0,-1 1,-2l0 0c1,0 2,0 2,1l2 0c0,0 0,0 1,1 0,0 0,0 0,0 0,0 -1,1 -1,2l-1 2c-1,1 -1,1 -2,2 -1,0 -2,0 -4,0 -1,0 -2,-1 -3,-2 -1,-1 -2,-3 -2,-4 0,0 1,-1 1,-1zm-8 5c0,0 1,1 1,1 1,0 1,1 1,1 1,0 1,-1 1,-1 0,0 0,-1 0,-1 0,0 -1,0 -1,0 0,0 0,0 -1,0 0,0 -1,-1 -1,-2 -1,1 0,2 0,2 0,1 0,1 0,2 0,1 -1,0 -1,0 0,1 1,2 1,1 0,-1 0,-1 0,-1 0,-1 0,-2 0,-2zm-16 34c-1,0 -4,0 -5,0 -4,7 6,7 9,1 -12,6 3,-4 4,-1 0,0 -1,1 -1,1 -3,3 -5,6 -8,7 -5,1 -9,-3 -6,-9 -1,0 -2,-4 0,-6 0,-1 0,-1 1,-1 1,-1 1,-1 2,-1l8 -2c1,1 1,1 2,2l0 0c0,0 0,0 0,0l-1 0 -2 0 -3 1c-1,1 -2,1 -3,1 -5,2 -2,6 3,7zm-23 7c-1,-3 0,-5 2,-6 3,-2 4,-2 7,-3 1,0 2,1 4,2 -2,0 -5,1 -7,2 -2,1 -3,2 -4,4 -1,3 5,13 8,11 1,-1 1,-2 -1,-2 0,0 0,0 0,0 0,0 0,0 0,-1 0,0 0,0 1,0 1,0 2,0 2,0 3,2 3,3 1,5 -1,0 -1,1 -2,1 -4,2 -10,-8 -11,-13zm9 -10c-1,0 -1,-1 -1,-1l0 0 1 0c0,-1 0,-1 -1,-1 -1,0 -4,1 -6,2 -4,1 -6,1 -6,-7l0 -4c0,0 0,0 0,0l0 -2c0,0 0,0 0,0l0 0c0,4 1,7 2,9 1,1 2,2 3,2 1,0 2,-1 4,-1 2,-1 4,-2 5,-2 3,0 0,4 -1,5zm4 -8c0,0 0,0 0,0 0,0 0,0 1,0l-1 0c0,0 0,-1 0,-1 0,0 0,0 0,0l0 0 -1 0c1,0 1,0 1,1 0,0 0,0 0,0zm1 1l0 0 0 0c0,0 0,0 0,0l-1 0c0,0 0,0 0,0 0,0 0,0 0,0 0,-1 0,-1 -1,-1 0,-1 0,-1 0,-2l-1 0 0 0c0,0 0,0 0,0l0 0 1 0c0,0 0,0 0,-1l0 0c0,0 0,0 0,0 0,0 0,0 0,-1 0,0 0,0 0,0l1 0c0,0 0,0 0,0 0,0 0,0 0,0l-1 0c0,1 0,1 0,1 0,1 0,1 0,1 0,0 1,0 1,0 0,1 0,1 0,1 0,0 0,0 0,0 0,0 0,0 0,0 0,0 0,0 0,0 0,0 0,0 0,0 0,0 0,0 0,0l1 0 0 0 0 0c1,0 1,0 1,0 0,0 0,0 1,0 0,0 0,0 0,0 0,0 0,0 0,0 0,0 0,0 0,0 0,0 0,0 0,0 0,0 0,0 0,0 -1,0 -1,0 -1,0 0,0 0,0 0,0 0,0 0,0 0,0l0 0 0 0 1 0 0 0 0 0 1 0c0,0 0,0 0,1 0,0 0,0 0,0 0,0 0,0 0,0 0,0 -1,0 -2,0l0 0 -1 -1 0 0c0,0 0,0 0,1 0,0 0,0 0,0l0 1 0 0c0,0 0,0 0,0 0,0 0,0 0,0zm-12 -1c-1,0 -2,-1 -4,-3 -1,-1 -1,-3 -1,-5 -1,-1 1,-6 2,-8l0 -1c0,0 0,0 0,0l0 -1c0,0 0,1 0,1 0,1 0,2 0,3l-1 2c0,0 0,1 1,1 0,3 1,7 3,9 1,1 2,2 3,2 0,0 0,0 0,0 1,0 1,0 1,0 3,-1 3,-3 2,-6 0,0 0,-1 0,-1 0,-1 0,-1 0,-1 0,0 0,0 0,0 0,-1 0,-1 -1,0l-1 1c-1,0 -1,1 -2,1 -1,0 -3,0 -4,-1 0,0 0,0 0,0 0,0 0,0 0,0l1 0c0,0 0,0 1,0 0,0 1,-1 3,-2 1,-1 2,-2 2,-2l1 1c0,0 0,0 1,0 1,0 1,1 1,1 1,0 1,2 1,4 0,2 0,3 0,4 -1,1 -2,2 -3,2 -2,1 -4,0 -6,-1zm5 -12c0,0 0,0 -1,0 -1,-1 -2,-2 -3,-4 -1,-2 -1,-5 -1,-8 1,-2 2,-4 4,-5 3,-2 7,-1 9,1 3,2 6,6 8,8l-2 0c-3,0 -5,-6 -9,-8 -2,-1 -3,-1 -4,0 -1,2 -2,3 -3,4l0 1c0,2 0,4 1,6 1,2 1,4 3,4 0,0 0,0 1,-1 0,-1 1,-1 1,-2l0 -1c1,-2 1,-3 0,-4 -1,1 -1,3 -2,3l0 0c-1,0 -1,0 -2,-1l0 0c0,-1 0,-1 0,-2l1 -2c0,0 0,0 0,0 0,0 1,-1 1,-1 0,1 1,1 2,1l2 2c1,0 1,1 2,2 0,0 0,2 0,3 -1,1 -1,2 -2,3 -1,2 -3,2 -4,2 0,0 -1,0 -2,-1zm6 21c-3,-1 -3,-1 -1,-4l2 2c0,0 -1,2 -1,2zm3 17c0,0 0,0 0,-1l0 0 0 0c1,-1 1,-1 1,-1 -1,-1 -1,-1 -2,-1 -3,0 -7,1 -10,-1 0,-1 -1,-2 0,-4 1,2 1,2 3,3 2,1 7,0 9,0 0,0 1,0 1,0 4,0 -1,5 -2,5zm-3 -5c0,0 0,0 0,0l0 0 0 -1c0,0 0,0 0,-1 0,0 -1,0 -1,0 -2,0 -6,0 -7,-2 -1,0 -1,-1 -1,-2 1,1 1,2 3,2 2,1 5,0 6,0 1,0 1,0 1,0 3,1 -1,4 -1,4zm6 -21c0,0 0,-1 -1,-1 -1,-1 -2,-2 -3,-3 -1,-2 -1,-5 -1,-8 1,-3 2,-5 4,-6 3,-2 8,0 9,3 1,1 2,2 3,4l-2 0c-1,0 -1,-1 -2,-2 -1,-1 -2,-3 -3,-4 -1,0 -3,0 -3,1 -1,1 -2,2 -3,4l0 1c0,2 0,4 1,6 0,2 1,3 2,3 1,1 1,0 2,0 0,-1 1,-2 1,-2l0 -1c1,-2 1,-4 0,-5 -1,2 -1,3 -2,4l0 0c-1,0 -1,-1 -2,-1l0 -1c0,0 0,-1 0,-1l1 -2c0,0 0,-1 0,-1 0,0 1,0 1,0 0,0 1,0 2,1l2 1c1,0 1,1 2,2 0,1 0,2 0,3 -1,2 -1,3 -2,4 -2,1 -3,2 -4,1 0,0 -1,0 -2,0zm5 8c1,0 1,-1 2,-1 0,-1 0,-1 0,-1 0,-1 0,-1 0,-1 -1,0 -1,0 -1,0 0,0 0,1 0,1 0,0 0,0 0,0 0,1 -1,2 -2,2 0,1 1,0 2,0 0,0 1,0 1,0 1,0 1,1 1,1 1,0 1,-1 0,-1 0,0 0,0 -1,0 0,0 -1,0 -2,0zm48 -20c1,0 4,0 5,0 3,-7 -7,-7 -10,0 13,-7 -3,3 -3,0 0,0 0,-1 1,-1 2,-3 5,-5 8,-6 4,-2 9,2 5,8 2,1 3,4 1,6 0,1 -1,1 -1,1 -1,1 -2,1 -3,1l-7 2c-2,0 -1,-1 -3,-2l0 0c0,0 0,0 1,0l1 0 1 0 3 -1c2,0 3,-1 4,-1 5,-2 1,-6 -3,-7zm23 -7c1,3 0,6 -3,7 -3,1 -4,1 -7,2 0,0 -2,-1 -3,-2 2,0 5,-1 7,-2 2,-1 3,-2 3,-4 1,-3 -5,-13 -7,-11 -2,1 -2,2 0,2 1,0 1,0 1,0 0,0 0,1 0,1 0,0 -1,0 -1,0 -1,0 -2,0 -3,0 -2,-2 -2,-3 0,-5 0,0 1,-1 2,-1 3,-2 10,8 11,13zm-9 11c0,0 0,0 0,0l0 0 0 0c0,1 0,1 0,1 2,0 5,-1 7,-2 4,-1 6,-1 6,7l0 4c0,0 0,0 0,0l0 2c0,0 -1,0 -1,0l0 0c0,-4 0,-7 -2,-9 -1,-1 -2,-1 -3,-2 -1,0 -2,1 -3,1 -2,1 -5,2 -5,2 -3,0 0,-4 1,-4zm-5 7c0,0 0,0 0,0 0,0 0,0 0,0l0 0c0,1 0,1 1,1 0,0 0,0 0,0l0 0 0 1c0,-1 0,-1 0,-2 0,0 -1,0 -1,0zm0 -1l0 0 0 0c0,0 0,0 0,0l0 0c0,0 0,0 0,0 0,0 0,1 0,1 1,0 1,0 1,0 1,1 1,1 1,2l1 0 0 0c0,0 -1,0 -1,0l0 0 0 0c0,0 0,0 0,1l0 0c0,0 0,0 -1,0 0,1 0,1 0,1 0,0 0,0 0,0l0 0c0,0 0,0 0,0 0,0 0,0 0,0l0 0c0,-1 0,-1 0,-1 0,-1 0,-1 0,-1 0,0 0,0 0,0 0,0 0,0 0,0 0,0 0,-1 0,-1 -1,0 -1,0 -1,0 0,0 0,0 0,0 0,0 0,0 0,0 0,0 0,0 0,0l0 0 -1 0 0 0c0,0 0,0 0,0 0,0 -1,0 -1,0 0,0 0,0 0,0 0,0 0,0 0,0 0,0 0,0 0,0 0,0 -1,0 -1,0 1,0 1,0 1,0 1,0 1,1 1,1 0,0 0,0 0,0 0,0 0,0 0,0l-1 -1 0 0 0 0 -1 0 0 0 0 0c0,0 0,0 -1,0 0,0 0,-1 0,-1 0,0 0,0 1,0 0,0 1,0 2,0l0 1 1 0 0 0c0,0 0,0 0,-1 0,0 0,0 -1,0l0 -1 0 0c0,0 0,0 1,0 0,0 0,0 0,0zm11 1c2,0 3,1 4,3 1,1 2,3 2,5 0,1 -1,7 -2,8l0 1c0,0 -1,1 -1,1l0 0c0,0 0,0 0,-1 1,-1 1,-2 1,-3l0 -2c0,0 0,-1 0,-1 0,-3 -1,-7 -3,-9 -1,-1 -2,-2 -3,-2 0,0 -1,0 -1,0 0,0 0,0 -1,0 -2,1 -2,3 -2,6 0,0 0,1 0,1 0,1 0,1 0,1 1,0 1,1 1,1 0,0 0,0 0,0l2 -2c0,0 1,-1 2,-1 1,0 3,0 3,1 0,0 0,0 0,0 0,0 0,0 0,0l0 0c-1,0 -1,0 -1,0 -1,0 -2,1 -3,3 -1,0 -2,1 -3,1l0 0c0,0 -1,-1 -2,-1 0,0 -1,-1 -1,-1 0,0 0,-2 0,-4 0,-2 0,-3 0,-4 1,-1 1,-2 3,-2 1,-1 4,0 5,1zm-5 12c1,0 1,0 2,1 1,0 2,2 3,3 1,2 1,5 0,8 0,3 -2,4 -4,5 -3,2 -6,1 -8,-1 -3,-2 -6,-6 -8,-8l2 0c3,0 4,6 9,8 1,1 3,1 4,0 1,-1 2,-3 2,-4l0 -1c1,-2 1,-4 0,-6 -1,-2 -2,-4 -3,-4 0,0 -1,0 -1,1 -1,1 -1,1 -1,2l-1 1c0,2 0,3 1,4 0,-1 1,-3 1,-3l1 0c0,0 1,0 1,1l1 0c0,1 -1,1 -1,2l0 2c-1,0 -1,0 -1,0 0,1 0,1 0,1 -1,0 -1,-1 -2,-1l-2 -1c-1,-1 -2,-1 -2,-2 0,-1 0,-2 0,-4 0,-1 1,-2 2,-3 1,-1 2,-2 4,-2 0,0 0,0 1,1zm-5 -21c3,1 2,1 1,4l-2 -2c0,0 0,-2 1,-2zm-3 -17c0,0 0,0 0,1l0 0 -1 0c0,1 0,1 0,1 0,1 1,1 2,1 2,0 7,-1 9,2 1,0 1,1 1,3 -1,-1 -2,-2 -3,-3 -3,-1 -7,0 -9,0 -1,0 -1,0 -2,0 -3,0 1,-5 3,-5zm3 5c0,0 0,0 0,0l0 1 0 0c-1,0 -1,1 0,1 0,0 0,0 1,0 2,0 5,0 7,2 0,0 0,1 0,2 0,-1 -1,-2 -2,-2 -2,-1 -5,0 -7,0 0,0 -1,0 -1,0 -2,-1 1,-4 2,-4zm-7 21c1,0 1,1 2,1 1,1 2,2 3,3 1,3 1,5 0,9 0,2 -2,4 -3,5 -4,2 -8,0 -10,-3 -1,-1 -1,-2 -2,-4l1 0c1,0 2,1 2,2 1,1 3,3 4,4 1,0 2,0 3,-1 1,-1 2,-2 2,-4l0 0c1,-2 1,-5 0,-7 -1,-2 -2,-3 -3,-3 0,0 -1,0 -1,0 -1,1 -1,2 -1,2l-1 1c0,2 0,4 1,5 0,-2 1,-3 1,-4l1 0c0,0 1,1 1,1l1 1c0,0 -1,1 -1,1l0 2c0,1 -1,1 -1,1 0,0 0,0 0,0 -1,0 -1,0 -2,-1l-2 -1c-1,0 -2,-1 -2,-2 0,-1 0,-2 0,-3 0,-2 1,-3 2,-4 1,-1 2,-2 4,-1 0,0 0,0 1,0zm-5 -8c0,0 -1,1 -1,1 -1,1 -1,1 -1,2 0,0 1,0 1,0 0,0 0,0 0,0 1,0 1,0 1,-1 0,0 -1,0 -1,0 1,-1 2,-2 3,-2 -1,0 -2,0 -2,0 -1,0 -1,0 -2,0 -1,0 0,-1 0,-1 -1,0 -2,1 -1,1 1,1 1,1 1,0 1,0 2,0 2,0z"/>
 </g>
</svg>
