<?xml version="1.0" encoding="UTF-8"?>
<!DOCTYPE svg PUBLIC "-//W3C//DTD SVG 1.1//EN" "http://www.w3.org/Graphics/SVG/1.1/DTD/svg11.dtd">
<!-- Creator: CorelDRAW X7 -->
<svg xmlns="http://www.w3.org/2000/svg" xml:space="preserve" width="1.58326in" height="1.58326in" version="1.1" style="shape-rendering:geometricPrecision; text-rendering:geometricPrecision; image-rendering:optimizeQuality; fill-rule:evenodd; clip-rule:evenodd"
viewBox="0 0 128 128"
 xmlns:xlink="http://www.w3.org/1999/xlink">
 <defs>
  <style type="text/css">
   <![CDATA[
    .fil0 {fill:#C09F5E}
   ]]>
  </style>
 </defs>
 <g id="Layer_x0020_1">
  <metadata id="CorelCorpID_0Corel-Layer"/>
  <path class="fil0" d="M22 0l84 0c12,0 22,10 22,22l0 84c0,12 -10,22 -22,22l-84 0c-12,0 -22,-10 -22,-22l0 -84c0,-12 10,-22 22,-22zm42 59c2,0 4,2 4,5 0,2 -2,4 -4,4 -3,0 -5,-2 -5,-4 0,-3 2,-5 5,-5zm-2 -5c1,-4 5,3 -3,2 -5,0 -1,-4 -3,-5 0,0 0,1 0,1 -1,7 6,6 8,4 4,-4 -4,-4 -2,-2zm4 0c-1,-4 -5,3 3,2 5,0 1,-4 3,-5 -1,0 -1,1 0,1 1,7 -6,6 -8,4 -4,-4 4,-4 2,-2zm-12 6c-3,-2 6,-2 1,4 -3,4 -4,-1 -6,0 0,0 0,0 1,1 5,4 8,-3 7,-5 -2,-6 -5,1 -3,0zm20 0c3,-2 -6,-2 -1,4 3,4 4,-1 6,0 0,0 -1,0 -1,1 -5,4 -8,-3 -7,-5 1,-6 5,1 3,0zm-18 11c-4,1 1,-7 4,1 2,4 -3,3 -4,5 1,0 1,0 2,-1 6,-2 1,-7 -1,-8 -6,-2 -2,5 -1,3zm16 0c4,1 -1,-7 -4,1 -2,4 3,3 4,5 -1,0 -1,0 -2,-1 -6,-2 -1,-7 0,-8 7,-2 3,5 2,3zm-6 3c-1,4 -5,-3 3,-2 5,0 1,3 3,5 -1,-1 -1,-1 0,-1 1,-7 -6,-6 -8,-4 -4,4 4,4 2,2zm-4 0c1,4 5,-3 -3,-2 -5,0 -1,3 -3,5 0,-1 0,-1 0,-1 -1,-7 6,-6 8,-4 4,4 -4,4 -2,2zm12 -6c3,2 -6,2 -1,-4 3,-4 4,0 6,0 0,0 -1,0 -1,-1 -5,-5 -8,3 -7,4 1,7 5,0 3,1zm-20 0c-3,2 6,2 1,-4 -3,-4 -4,0 -6,0 0,0 0,0 1,-1 5,-5 8,3 7,4 -2,7 -5,0 -3,1zm18 -11c4,-1 -1,6 -4,-1 -2,-5 3,-3 4,-5 -1,0 -1,0 -2,0 -6,2 -1,8 0,9 7,1 3,-5 2,-3zm-16 0c-4,-1 1,6 4,-1 2,-5 -3,-3 -4,-5 1,0 1,0 2,0 6,2 1,8 -1,9 -6,1 -2,-5 -1,-3zm6 -2c-2,-4 3,-4 2,-7 -1,2 -5,5 -2,7zm4 0c2,-4 -3,-4 -2,-7 1,2 5,5 2,7zm-11 6c-4,-1 -2,-4 -5,-5 1,2 1,7 5,5zm18 0c4,-1 2,-4 5,-5 -2,2 -2,7 -5,5zm-16 9c-3,4 -4,0 -7,2 3,0 7,2 7,-2zm14 0c3,4 4,0 7,2 -3,0 -7,2 -7,-2zm-5 3c2,4 -3,4 -2,7 1,-2 5,-5 2,-7zm-4 0c-2,4 3,4 2,7 -1,-2 -5,-5 -2,-7zm11 -6c4,0 2,4 5,5 -2,-2 -2,-7 -5,-5zm-18 0c-4,0 -2,4 -5,5 1,-2 1,-7 5,-5zm16 -9c3,-4 4,0 7,-2 -3,0 -7,-2 -7,2zm-14 0c-3,-4 -4,0 -7,-2 3,0 7,-2 7,2zm7 -5c0,-2 0,-2 -1,-2 0,1 0,1 1,2zm0 0c0,-2 0,-2 1,-2 0,1 0,1 -1,2zm-10 5c-1,-1 -1,0 -2,1 1,0 1,0 2,-1zm20 0c1,-1 1,0 2,1 -1,0 -1,0 -2,-1zm-20 12c-1,0 -1,1 0,1 0,0 0,0 0,-1zm20 0c1,0 1,1 0,1 0,0 -1,0 0,-1zm-10 5c0,1 0,2 1,2 0,-1 0,-1 -1,-2zm0 0c0,1 0,2 -1,2 0,-1 0,-1 1,-2zm10 -5c1,0 1,0 2,-1 -1,0 -1,0 -2,1zm-20 0c-1,0 -1,0 -2,-1 1,0 1,0 2,1zm20 -12c1,0 1,-1 0,-2 0,1 -1,1 0,2zm-20 0c-1,0 -1,-1 0,-2 0,1 0,1 0,2zm10 -5c1,-2 1,-1 0,-3 -1,2 -1,1 0,3zm0 0c-1,-2 -1,-1 0,-3 1,2 1,1 0,3zm-10 5c-1,-1 0,-1 -2,-1 1,1 0,1 2,1zm20 0c1,-1 0,-1 2,-1 -1,1 0,1 -2,1zm-20 12c-2,0 -1,-1 -2,1 2,0 1,0 2,-1zm20 0c2,0 1,-1 2,1 -2,0 -1,0 -2,-1zm-10 5c-1,2 -1,1 0,3 1,-2 1,-1 0,-3zm0 0c1,2 1,1 0,3 -1,-2 -1,-1 0,-3zm10 -5c1,1 0,1 2,1 -1,-2 0,-1 -2,-1zm-20 0c-1,1 0,1 -2,1 1,-2 0,-1 2,-1zm20 -12c2,0 1,0 2,-1 -2,0 -1,0 -2,1zm-20 0c-2,0 -1,0 -2,-1 2,0 1,0 2,1zm14 -2c2,-2 2,-1 3,-4 -2,3 -2,1 -3,4zm-8 0c-3,-2 -2,-1 -3,-4 2,3 1,1 3,4zm0 0c-2,-3 -1,-1 -3,-4 1,3 0,2 3,4zm8 0c1,-3 1,-1 3,-4 -1,3 -1,2 -3,4zm-13 8c-3,-1 -2,-1 -5,0 3,1 2,1 5,0zm18 0c3,-1 1,-1 4,0 -3,1 -1,1 -4,0zm-13 8c-3,2 -2,1 -3,4 2,-3 1,-1 3,-4zm8 0c2,2 2,1 3,4 -2,-3 -2,-1 -3,-4zm0 0c1,3 1,1 3,4 -1,-3 -1,-2 -3,-4zm-8 0c-2,3 -1,1 -3,4 1,-3 0,-2 3,-4zm13 -8c3,1 1,1 4,0 -3,-1 -1,-1 -4,0zm-18 0c-3,1 -2,1 -5,0 3,-1 2,-1 5,0zm13 -8c1,-2 1,-2 1,-3 -1,1 -1,1 -1,3zm-8 0c-1,-2 -1,-2 -1,-3 1,1 1,1 1,3zm-1 0c-1,-1 -1,-1 -2,-2 0,2 0,2 2,2zm10 0c1,-1 1,-1 2,-2 0,2 -1,2 -2,2zm-14 8c-2,0 -2,0 -3,1 1,1 2,1 3,-1zm18 0c2,0 2,0 3,1 -2,1 -2,1 -3,-1zm-13 8c-1,2 -1,1 -1,3 1,-1 1,-1 1,-3zm8 0c1,2 1,1 1,3 -1,-1 -1,-1 -1,-3zm1 0c1,1 1,1 2,2 0,-2 -1,-2 -2,-2zm-10 0c-1,1 -1,1 -2,2 0,-2 0,-2 2,-2zm14 -8c2,-1 2,0 3,-1 -2,-1 -2,-1 -3,1zm-18 0c-2,-1 -2,0 -3,-1 1,-1 2,-1 3,1zm6 -8c1,0 2,0 2,-1 -1,0 -1,0 -2,1zm6 0c-1,0 -2,0 -2,-1 1,0 1,0 2,1zm-12 6c1,0 1,-1 1,-2 -1,1 -1,1 -1,2zm17 0c-1,0 -1,-1 0,-2 1,1 1,1 0,2zm-14 8c1,-1 0,-1 -1,-1 0,1 0,1 1,1zm11 0c0,-1 1,-1 2,-1 0,1 -1,1 -2,1zm-2 2c-1,-1 -2,0 -2,1 1,0 1,0 2,-1zm-6 0c1,-1 2,0 2,1 -1,0 -1,0 -2,-1zm11 -7c-1,1 -1,2 0,3 1,-1 1,-2 0,-3zm-17 0c1,1 1,2 1,3 -1,-1 -1,-2 -1,-3zm14 -8c0,1 1,2 2,2 0,-1 -1,-2 -2,-2zm-11 0c1,1 0,2 -1,2 0,-1 0,-2 1,-2zm2 -4c1,-3 3,-4 3,-5 -1,1 -4,3 -3,5zm8 0c-1,-3 -4,-4 -3,-5 1,1 4,3 3,5zm-16 8c-2,-1 -1,-4 -3,-4 1,1 1,5 3,4zm24 0c2,-1 1,-4 3,-4 -1,1 -1,5 -3,4zm-20 12c-2,1 -5,-1 -6,0 2,0 5,2 6,0zm16 0c2,1 4,-1 5,0 -1,0 -4,2 -5,0zm-4 2c-1,3 -4,4 -3,5 1,-1 4,-3 3,-5zm-8 0c1,3 3,4 3,5 -1,-1 -4,-3 -3,-5zm16 -9c2,2 1,5 3,5 -1,-2 -1,-5 -3,-5zm-24 0c-2,2 -1,5 -3,5 1,-2 1,-5 3,-5zm20 -11c2,-1 4,1 5,0 -1,0 -4,-2 -5,0zm-16 0c-2,-1 -5,1 -6,0 2,0 5,-2 6,0zm0 -1c0,-1 0,-2 0,-3 -1,1 -2,2 0,3zm16 0c0,-1 0,-2 0,-3 1,1 1,2 0,3zm-21 12c0,-1 -1,-1 -2,-2 0,2 1,3 2,2zm25 0c1,-1 2,-1 3,-2 0,2 -1,3 -3,2zm-16 10c-1,0 -2,1 -3,1 1,1 2,0 3,-1zm8 0c1,0 2,1 3,1 -1,1 -3,0 -3,-1zm4 -2c0,1 0,2 0,3 1,-1 1,-2 0,-3zm-16 0c0,1 0,2 0,3 -1,-1 -2,-2 0,-3zm20 -12c1,0 2,1 3,2 0,-2 -1,-3 -3,-2zm-25 0c0,0 -1,1 -2,2 0,-2 1,-3 2,-2zm17 -10c1,0 2,-1 3,-1 -1,-1 -3,-1 -3,1zm-8 0c-1,0 -2,-1 -3,-1 1,-1 2,-1 3,1zm16 38c0,1 0,4 0,5 7,3 7,-7 0,-10 7,13 -3,-3 -1,-4 1,0 2,1 2,1 3,3 6,5 7,9 1,4 -3,9 -9,5 -1,2 -4,3 -7,1 0,0 0,-1 -1,-2 0,0 0,-1 -1,-2l-2 -8c1,-1 1,-1 2,-2l0 0c0,0 0,0 0,0l1 1 0 2 1 3c0,2 1,3 1,4 2,5 6,1 7,-3zm7 24c-3,0 -6,-1 -7,-3 -1,-3 -1,-5 -2,-7 0,-1 1,-3 2,-4 0,2 1,5 2,7 1,2 2,3 4,4 3,1 14,-5 12,-8 -1,-1 -3,-1 -3,1 0,0 0,0 0,0 0,0 0,0 0,0 -1,0 -1,0 -1,-1 0,-1 0,-2 1,-3 1,-2 2,-2 4,0 1,1 2,1 2,2 2,4 -9,11 -14,12zm-11 -10c0,0 0,1 0,0l0 0 -1 0c0,0 -1,0 -1,0 1,2 2,5 3,7 1,4 1,7 -7,7l-4 -1c-1,0 -1,0 -1,0l-1 0c-1,0 -1,0 -1,0l0 0c5,0 8,-1 9,-2 2,-1 2,-2 2,-3 0,-1 0,-2 0,-4 -1,-2 -2,-4 -2,-5 -1,-3 4,0 4,1zm-7 -5c0,0 0,0 0,0 0,0 0,0 0,0l-1 0c0,0 0,0 -1,1 0,0 0,0 0,0l0 0 0 0c0,0 1,0 1,0 0,0 1,-1 1,-1zm0 0l0 0 0 0c0,0 0,0 0,0l0 0c0,0 0,0 0,0 0,0 0,1 0,1 0,0 0,0 -1,0 0,1 -1,1 -1,1l-1 1 0 0c0,0 0,0 0,0l0 -1 0 0c0,0 0,0 -1,0l0 0c0,0 0,0 0,0 0,0 0,0 0,0 0,0 0,-1 0,-1l-1 0c0,0 0,0 0,0 0,0 0,0 0,0l1 0c0,0 0,0 1,0 0,0 0,0 1,0 0,0 0,0 0,0 0,0 0,0 0,0 0,0 0,0 0,0 0,0 0,-1 0,-1 0,0 0,0 0,0 0,0 0,0 0,0 0,0 0,0 0,0l0 0 0 0 1 -1c0,0 0,0 0,0 0,0 0,-1 0,-1 0,0 0,0 0,0 0,0 0,0 0,0 0,0 0,0 0,0 0,-1 0,-1 0,-1 0,0 -1,1 -1,1 0,0 0,1 0,1 0,0 0,0 0,0 0,0 0,0 0,0l0 -1 0 0 0 0 0 -1 1 0 0 0c0,0 0,-1 0,-1 0,0 0,0 0,0 0,0 0,0 0,0 0,1 0,2 0,3l0 0 0 1 0 0c0,0 0,0 0,0 0,0 1,0 1,-1l0 1 0 -1c0,0 0,0 0,1 0,0 0,0 0,0zm0 12c-1,1 -2,3 -3,4 -2,1 -4,2 -6,2 -1,0 -7,-2 -8,-2l-2 -1c0,0 0,0 0,0l0 0c0,0 0,0 0,0 1,0 3,1 4,1l2 0c0,0 1,0 1,0 3,0 7,-2 9,-4 1,-1 2,-2 2,-3 1,0 1,0 1,0 -1,-1 -1,-1 -1,-1 -1,-3 -3,-3 -6,-3 0,0 -1,0 -1,1 -1,0 -1,0 -1,0 0,0 0,0 0,0 0,0 0,0 0,0l1 2c0,1 1,2 1,2 0,1 0,3 0,4 -1,0 -1,0 -1,0 0,0 0,0 0,0l0 -1c0,0 0,0 0,0 0,-1 -1,-2 -2,-4 -1,-1 -2,-2 -2,-2l0 -1c0,0 1,0 1,-1 0,-1 1,-1 1,-1 0,-1 2,-1 5,-1 1,0 3,0 3,0 1,1 2,2 3,3 0,2 -1,4 -1,6zm-13 -6c0,1 0,1 -1,2 -1,1 -2,2 -3,3 -2,1 -5,2 -9,1 -2,-1 -4,-2 -5,-4 -2,-4 -1,-7 1,-9 2,-3 7,-7 8,-9l0 2c0,4 -6,5 -8,10 -1,2 -1,3 1,4 1,1 2,2 4,3l0 0c2,0 5,0 7,-1 2,-1 4,-2 4,-3 0,0 0,-1 -1,-1 -1,-1 -1,-1 -2,-1l-1 -1c-2,0 -4,0 -5,1 2,0 3,1 4,1l0 1c0,1 0,1 -1,2l-1 0c0,0 -1,0 -1,0l-2 -1c-1,0 -1,0 -1,0 0,-1 0,-1 0,-1 0,0 0,-1 1,-2l1 -2c0,-1 1,-2 2,-2 1,0 2,0 4,0 1,0 2,1 3,2 1,1 2,3 2,4 0,0 0,1 -1,1zm22 -5c-2,3 -1,2 -4,1l2 -2c0,0 2,0 2,1zm17 -3c0,0 0,0 0,0l0 0 -1 -1c0,0 -1,0 -1,0 0,0 0,1 0,2 0,3 1,7 -2,10 -1,0 -2,1 -4,0 2,-1 3,-1 3,-3 1,-3 0,-7 0,-9 0,-1 0,-1 0,-2 0,-3 5,1 5,3zm-5 3c0,0 0,0 0,0l0 0 -1 0c0,0 0,0 0,0 -1,0 -1,0 -1,1 0,2 1,6 -1,7 -1,1 -2,1 -3,1 1,-1 2,-1 2,-3 1,-2 1,-5 0,-7 0,0 0,0 0,-1 1,-2 4,1 4,2zm-22 -7c0,0 0,1 -1,2 0,1 -2,2 -3,3 -2,1 -5,1 -9,0 -2,0 -4,-2 -5,-4 -2,-3 0,-7 3,-9 1,-1 2,-2 4,-3l0 2c0,1 -1,1 -2,2 -2,1 -4,2 -4,4 0,1 0,2 1,3 1,1 2,2 4,2l0 0c3,1 5,1 7,0 2,-1 4,-2 4,-3 0,-1 0,-1 -1,-2 -1,0 -1,0 -2,-1l-1 0c-2,-1 -4,0 -5,1 2,0 3,0 4,1l0 0c0,1 0,2 -1,2l-1 1c0,-1 -1,-1 -1,-1l-2 -1c-1,0 -1,0 -1,0 0,0 0,0 0,0 0,-1 0,-2 1,-3l1 -2c0,-1 1,-1 2,-1 1,-1 2,-1 4,-1 1,1 2,1 3,2 1,2 2,3 2,5 0,0 0,0 -1,1zm9 -5c-1,-1 -1,-1 -2,-2 0,0 -1,0 -1,0 0,0 0,0 0,0 0,1 0,1 0,1 0,0 0,0 0,0 1,0 1,0 1,0 1,0 2,1 2,2 0,0 0,-1 0,-2 0,0 0,-1 0,-1 0,-1 0,-1 1,-1 0,-1 -1,-1 -2,0 0,0 0,0 0,1 0,0 1,1 1,2zm-21 -50c0,-1 0,-4 0,-5 -7,-4 -7,7 -1,10 -6,-13 4,3 1,4 0,0 -1,-1 -1,-1 -4,-3 -6,-5 -7,-9 -1,-4 3,-9 9,-5 1,-2 4,-3 6,-1 1,0 1,1 2,1 0,1 0,2 1,3l1 8c0,1 -1,1 -1,2l0 0c-1,0 -1,0 -1,0l0 -1 0 -2 -1 -3c0,-2 -1,-3 -1,-4 -2,-5 -6,-1 -7,3zm-7 -24c3,-1 5,1 6,3 2,3 2,4 3,7 0,1 -1,3 -2,4 0,-2 -1,-5 -2,-7 -1,-2 -2,-4 -4,-4 -3,-1 -14,5 -12,8 1,1 2,1 3,-1 0,0 0,0 0,0 0,0 0,0 0,0 0,0 1,0 1,1 0,1 -1,2 -1,2 -2,3 -2,3 -4,1 -1,-1 -2,-1 -2,-2 -2,-4 9,-11 14,-12zm11 10c0,-1 0,-1 0,-1l0 0 1 1c0,0 1,0 1,-1 -1,-1 -2,-4 -3,-6 -1,-4 -1,-7 7,-7l4 0c0,0 1,0 1,0l1 1c0,0 1,0 1,0l0 0c-5,0 -8,1 -10,2 -1,1 -1,2 -1,3 0,1 0,2 0,4 1,2 2,4 2,5 0,3 -4,0 -4,-1zm7 5c0,0 0,0 0,0 0,0 0,0 0,0l1 0c0,0 0,-1 0,-1 1,0 1,0 1,0l0 0 0 0c0,0 -1,0 -1,0 -1,0 -1,0 -1,1zm-1 0l0 0 1 0c0,0 0,0 0,0l0 0c0,0 0,-1 0,-1 0,0 0,0 0,0 0,0 0,0 1,-1 0,0 1,0 1,0l0 -1 1 0c0,0 0,0 0,0l-1 1 0 0c1,0 1,0 1,0l1 0c0,0 0,0 0,0 0,0 0,0 0,0 0,0 0,0 0,0l1 1c0,0 0,0 0,0 0,0 0,0 0,0l-1 0c0,0 0,0 -1,-1 0,0 -1,0 -1,0 0,1 0,1 0,1 0,0 0,0 0,0 0,0 0,0 0,0 0,0 0,0 0,0 0,0 0,0 0,1 0,0 0,0 0,0 0,0 0,0 0,0l-1 0 0 0 0 1c0,0 0,0 0,0 0,0 0,0 0,1 0,0 0,0 0,0 0,0 0,0 0,0 0,0 0,0 0,0 0,0 0,0 0,0 0,0 0,0 1,0 0,-1 0,-1 0,-1 0,0 0,0 0,0 0,0 0,0 0,0l0 0 0 1 0 0 -1 1 0 0 0 0c0,0 0,0 0,1 0,0 0,0 0,0 0,-1 0,-1 0,-1 0,0 0,-1 0,-2l0 0 0 -1 0 0c0,0 0,0 0,0 0,0 -1,0 -1,0l0 0 0 0c0,0 0,0 -1,0 0,0 0,0 0,0zm1 -12c1,-2 2,-3 3,-4 2,-1 4,-2 5,-2 2,0 7,2 9,2l1 1c1,0 1,0 1,0l0 0c0,0 0,0 0,0 -2,-1 -3,-1 -4,-1l-2 0c0,0 -1,0 -1,0 -4,0 -7,2 -9,4 -2,1 -2,2 -3,3 0,0 0,0 0,0 0,0 1,1 1,1 1,2 3,3 5,2 1,0 2,0 2,0 1,0 1,0 1,0 0,0 0,0 0,0 0,0 0,-1 0,-1l-1 -1c0,-1 -1,-2 -1,-3 0,0 0,-3 0,-3 0,0 1,0 1,0 0,0 0,0 0,0l0 1c0,0 0,0 0,0 0,1 1,2 2,4 1,1 2,1 1,2l0 0c0,1 0,1 0,2 -1,1 -1,1 -1,1 -1,1 -2,1 -5,1 -2,0 -3,0 -3,0 -2,-1 -2,-2 -3,-3 0,-2 0,-4 1,-6zm13 5c0,0 0,-1 0,-1 1,-1 3,-3 4,-3 2,-1 5,-2 8,-1 3,1 5,2 6,4 2,3 1,7 -1,9 -3,3 -7,7 -9,8l0 -1c0,-4 7,-6 9,-10 0,-2 1,-3 -1,-4 -1,-1 -2,-2 -4,-3l-1 0c-2,0 -4,0 -6,1 -2,0 -4,1 -4,2 0,1 0,1 1,2 1,0 1,1 2,1l1 0c2,1 4,1 5,0 -2,-1 -3,-1 -4,-2l0 0c0,-1 0,-1 1,-2l0 0c1,0 2,0 2,0l2 1c0,0 1,0 1,0 0,0 0,1 0,1 0,0 0,1 -1,2l-1 2c-1,1 -1,1 -2,2 -1,0 -2,0 -4,0 -1,0 -2,-1 -3,-2 -2,-1 -2,-3 -2,-4 0,0 0,-1 1,-2zm-22 6c1,-3 1,-3 4,-1l-2 2c0,0 -2,-1 -2,-1zm-17 3c0,0 0,0 0,0l0 0 1 1c0,0 1,0 1,0 0,0 0,-1 0,-2 0,-3 -1,-7 2,-10 1,0 2,-1 3,-1 -1,2 -2,2 -2,4 -1,2 -1,7 0,9 0,1 0,1 0,2 -1,3 -5,-1 -5,-3zm5 -3c0,0 0,0 0,0l0 0 0 0c1,0 1,0 1,0 0,0 0,0 1,-1 0,-2 -1,-6 1,-7 1,-1 2,-1 3,-1 -1,1 -2,1 -2,2 -1,2 -1,6 -1,7 0,1 0,1 0,2 0,2 -3,-1 -3,-2zm22 7c0,-1 0,-1 0,-2 1,-1 2,-2 4,-3 2,-1 5,-1 8,0 3,0 5,1 6,3 2,4 0,8 -3,10 -1,1 -2,2 -4,3l0 -2c0,-1 1,-1 2,-2 1,-1 3,-2 4,-4 0,-1 0,-2 -1,-3 -1,-1 -2,-2 -4,-2l-1 0c-2,-1 -4,-1 -6,0 -2,1 -4,2 -4,3 0,0 0,1 1,1 1,1 1,1 2,1l1 1c2,0 3,0 5,-1 -2,0 -3,-1 -4,-1l0 0c0,-1 0,-2 1,-2l0 -1c1,0 2,1 2,1l2 1c0,0 1,0 1,0 0,0 0,0 0,0 0,1 0,1 -1,2l-1 3c-1,0 -1,1 -2,1 -1,1 -2,1 -4,0 -1,0 -2,-1 -3,-2 -2,-1 -2,-2 -2,-4 0,0 0,0 1,-1zm-9 5c1,1 1,1 1,1 1,1 1,1 2,1 0,0 0,0 0,-1 0,0 0,0 0,0 0,0 0,0 -1,0 0,0 0,0 0,0 -1,-1 -2,-2 -2,-3 0,1 0,2 0,3 0,0 0,1 0,1 0,1 -1,1 -1,1 0,1 1,1 1,0 1,0 1,-1 1,-1 -1,0 -1,-2 -1,-2zm-17 36c-1,0 -4,0 -5,0 -4,7 7,7 10,0 -13,7 3,-3 4,-1 0,1 -1,2 -1,2 -3,3 -5,6 -9,7 -4,1 -9,-3 -5,-9 -2,-1 -3,-4 -1,-7 0,0 1,0 1,-1 1,0 2,0 3,-1l8 -2c1,1 1,1 2,2l0 0c0,0 0,0 0,0l-1 1 -2 0 -3 1c-2,0 -3,1 -4,1 -5,2 -1,6 3,7zm-24 7c-1,-3 1,-6 3,-7 3,-1 4,-1 7,-2 1,0 3,1 4,2 -2,0 -5,1 -7,2 -2,1 -4,2 -4,4 -1,3 5,14 8,12 1,-1 1,-3 -1,-3 0,0 0,0 0,0 0,0 0,0 0,0 0,-1 0,-1 1,-1 1,0 2,0 2,1 3,1 3,2 1,4 -1,1 -1,2 -2,2 -4,2 -11,-9 -12,-14zm10 -11c-1,0 -1,0 -1,0l0 0 1 -1c0,0 0,-1 -1,-1 -1,1 -4,2 -6,3 -4,1 -7,1 -7,-7l0 -4c0,-1 0,-1 0,-1l1 -1c0,-1 0,-1 0,-1l0 0c0,5 1,8 2,9 1,2 2,2 3,2 1,0 2,0 4,0 2,-1 4,-2 5,-2 3,-1 0,4 -1,4zm5 -7c0,0 0,0 0,0 0,0 0,0 0,0l0 -1c0,0 -1,0 -1,-1 0,0 0,0 0,0l0 0 0 0c0,0 0,1 0,1 0,0 0,1 1,1zm0 0l0 0 0 0c0,0 0,0 0,0l0 0c0,0 -1,0 -1,0 0,0 0,0 0,0 0,0 0,0 -1,-1 0,0 0,-1 0,-1l-1 -1 0 0c0,0 0,0 0,0l1 0 0 0c0,0 0,0 0,-1l0 0c0,0 0,0 0,0 0,0 0,0 0,0 0,0 0,0 0,0l1 -1c0,0 0,0 0,0 0,0 0,0 0,0l0 1c0,0 0,0 -1,1 0,0 0,0 0,1 1,0 1,0 1,0 0,0 0,0 0,0 0,0 0,0 0,0 0,0 0,0 0,0 0,0 0,0 1,0 0,0 0,0 0,0 0,0 0,0 0,0l0 0 0 0 1 1c0,0 0,0 0,0 0,0 0,0 1,0 0,0 0,0 0,0 0,0 0,0 0,0 0,0 0,0 0,0 0,0 0,0 0,0 0,0 0,-1 0,-1 -1,0 -1,0 -1,0 0,0 0,0 0,0 0,0 0,0 0,0l0 0 1 0 0 0 1 0 0 1 0 0c0,0 0,0 1,0 0,0 0,0 0,0 -1,0 -1,0 -1,0 0,0 -1,0 -2,0l0 0 -1 0 0 0c0,0 0,0 0,0 0,0 0,1 0,1l0 0 0 0c0,0 0,0 0,0 0,0 0,0 0,0zm-12 0c-2,-1 -3,-2 -4,-3 -1,-2 -2,-4 -2,-6 0,-1 2,-7 2,-8l1 -2c0,0 0,0 0,0l0 0c0,0 0,0 0,0 -1,1 -1,3 -1,4l0 2c0,0 0,1 0,1 0,3 2,7 4,9 1,1 2,2 3,2 0,1 0,1 0,1 0,-1 1,-1 1,-1 2,-1 3,-3 2,-6 0,0 0,-1 0,-1 0,-1 0,-1 0,-1 0,0 0,0 0,0 0,0 -1,0 -1,0l-1 1c-1,0 -2,1 -3,1 0,0 -3,0 -3,0 0,-1 0,-1 0,-1 0,0 0,0 0,0l1 0c0,0 0,0 0,0 1,0 2,-1 4,-2 1,-1 1,-2 2,-2l0 0c1,0 1,1 2,1 1,0 1,1 1,1 1,0 1,2 1,5 0,1 0,3 0,3 -1,1 -2,2 -3,3 -2,0 -4,-1 -6,-1zm5 -13c0,0 -1,0 -1,-1 -1,-1 -3,-2 -3,-3 -1,-2 -2,-5 -1,-9 1,-2 2,-4 4,-5 3,-2 7,-1 9,1 3,2 7,7 8,8l-1 0c-4,0 -6,-6 -10,-8 -2,-1 -3,-1 -4,1 -1,1 -2,2 -3,4l0 0c0,2 0,5 1,7 0,2 1,4 2,4 1,0 1,0 2,-1 0,-1 1,-1 1,-2l0 -1c1,-2 1,-4 0,-5 -1,2 -1,3 -2,4l0 0c-1,0 -1,0 -2,-1l0 -1c0,0 0,-1 0,-1l1 -2c0,-1 0,-1 0,-1 0,0 1,0 1,0 0,0 1,0 2,1l2 1c1,0 1,1 2,2 0,1 0,2 0,4 0,1 -1,2 -2,3 -1,1 -3,2 -4,2 0,0 -1,0 -2,-1zm6 22c-3,-2 -3,-1 -1,-4l2 2c0,0 -1,2 -1,2zm3 17c0,0 0,0 0,0l0 0 1 -1c0,0 0,-1 0,-1 0,0 -1,0 -2,0 -3,0 -7,1 -10,-2 0,-1 -1,-2 -1,-4 2,2 2,3 4,3 2,1 7,0 9,0 1,0 1,0 2,0 3,0 -1,5 -3,5zm-3 -5c0,0 0,0 0,0l0 0 0 -1c0,0 0,0 0,0 0,-1 0,-1 -1,-1 -2,0 -6,1 -7,-1 -1,-1 -1,-2 -1,-3 1,1 1,2 2,2 2,1 6,1 7,0 1,0 1,0 2,0 2,1 -1,4 -2,4zm7 -22c-1,0 -1,0 -2,-1 -1,0 -2,-2 -3,-3 -1,-2 -1,-5 0,-9 0,-2 1,-4 3,-5 4,-2 8,0 10,3 1,1 2,2 3,4l-2 0c-1,0 -1,-1 -2,-2 -1,-2 -2,-4 -4,-4 -1,0 -2,0 -3,1 -1,1 -2,2 -2,4l0 0c-1,3 -1,5 0,7 1,2 2,4 3,4 0,0 1,0 1,-1 1,-1 1,-1 1,-2l1 -1c0,-2 0,-4 -1,-5 0,2 -1,3 -1,4l0 0c-1,0 -2,0 -2,-1l-1 -1c0,0 1,-1 1,-1l1 -2c0,-1 0,-1 0,-1 0,0 0,0 0,0 1,0 1,0 2,1l3 1c0,0 1,1 1,2 1,1 1,2 0,4 0,1 -1,2 -2,3 -1,1 -2,2 -4,2 0,0 0,0 -1,-1zm5 9c1,-1 1,-1 1,-2 1,0 1,-1 1,-1 0,0 0,0 -1,0 0,0 0,0 0,0 0,0 0,0 0,0 0,1 0,1 0,1 -1,1 -2,2 -3,2 1,0 2,0 3,0 0,0 1,0 1,0 1,0 1,0 1,1 1,0 1,-1 0,-2 0,0 -1,0 -1,0 0,0 -2,1 -2,1zm50 -21c1,0 4,0 5,0 3,-7 -7,-7 -10,-1 13,-6 -3,4 -4,1 0,0 1,-1 1,-1 3,-4 5,-6 9,-7 4,-1 9,3 5,9 2,1 3,4 1,6 0,1 -1,1 -2,2 0,0 -1,0 -2,1l-8 1c-1,0 -1,-1 -2,-1l0 0c0,-1 0,-1 0,-1l1 0 2 0 3 -1c2,0 3,-1 4,-1 5,-2 1,-6 -3,-7zm24 -7c0,3 -1,5 -3,6 -3,2 -5,2 -7,3 -1,0 -3,-1 -4,-2 2,0 5,-1 7,-2 2,-1 3,-2 4,-4 1,-3 -5,-14 -8,-12 -1,1 -1,2 1,3 0,0 0,0 0,0 0,0 0,0 0,0 0,0 0,1 -1,1 -1,0 -2,-1 -3,-1 -2,-2 -2,-2 0,-4 1,-1 1,-2 2,-2 4,-2 11,9 12,14zm-10 11c0,0 1,0 0,0l0 0 0 1c0,0 0,1 0,1 2,-1 5,-2 7,-3 4,-1 7,-1 7,7l-1 4c0,0 0,1 0,1l0 1c0,0 0,1 0,1l0 0c0,-5 -1,-8 -2,-10 -1,-1 -2,-1 -3,-1 -1,0 -2,0 -4,0 -2,1 -4,2 -5,2 -3,0 0,-4 1,-4zm-5 7c0,0 0,0 0,0 0,0 0,0 0,0l0 1c0,0 0,0 1,0 0,1 0,1 0,1l0 0 0 0c0,0 0,-1 0,-1 0,-1 -1,-1 -1,-1zm0 -1l0 0 0 1c0,0 0,0 0,0l0 0c0,0 0,0 0,0 0,0 1,0 1,0 0,0 0,0 0,1 1,0 1,1 1,1l1 0 0 1c0,0 0,0 0,0l-1 -1 0 0c0,1 0,1 0,1l0 1c0,0 0,0 0,0 0,0 0,0 0,0 0,0 -1,0 -1,0l0 1c0,0 0,0 0,0 0,0 0,0 0,0l0 -1c0,0 0,0 0,-1 0,0 0,-1 0,-1 0,0 0,0 0,0 0,0 0,0 0,0 0,0 0,0 0,0 0,0 -1,0 -1,0 0,0 0,0 0,0 0,0 0,0 0,0 0,0 0,0 0,0l0 -1 0 0 -1 0c0,0 0,0 0,0 0,0 -1,0 -1,0 0,0 0,0 0,0 0,0 0,0 0,0 0,0 0,0 0,0 -1,0 -1,0 -1,0 0,0 1,0 1,1 0,0 1,0 1,0 0,0 0,0 0,0 0,0 0,0 0,0l-1 0 0 0 0 0 -1 -1 0 0 0 0c0,0 -1,0 -1,0 0,0 0,0 0,0 0,0 0,0 0,0 1,0 2,0 3,0l0 0 1 0 0 0c0,0 0,0 0,0 0,0 0,-1 -1,-1l1 0 -1 0c0,0 0,0 1,-1 0,0 0,0 0,0zm12 1c1,1 3,2 4,3 1,2 2,4 2,5 0,2 -2,7 -2,9l-1 1c0,1 0,1 0,1l0 0c0,0 0,0 0,0 0,-2 1,-3 1,-4l0 -2c0,0 0,-1 0,-1 0,-4 -2,-7 -4,-9 -1,-2 -2,-2 -3,-3 0,0 0,0 0,0 -1,0 -1,1 -1,1 -3,1 -3,3 -3,5 0,1 0,2 1,2 0,1 0,1 0,1 0,0 0,0 0,0 0,0 0,0 0,0l2 -1c1,0 2,-1 2,-1 1,0 3,0 4,0 0,0 0,1 0,1 0,0 0,0 0,0l-1 0c0,0 0,0 0,0 -1,0 -2,1 -4,2 -1,1 -2,2 -2,1l-1 0c0,0 0,0 -1,0 -1,-1 -1,-1 -1,-1 -1,-1 -1,-2 -1,-5 0,-2 0,-3 0,-3 1,-2 2,-2 3,-3 2,0 4,0 6,1zm-6 13c1,0 1,0 2,0 1,1 2,3 3,4 1,2 2,5 1,8 -1,3 -2,5 -4,6 -4,2 -7,1 -9,-1 -3,-3 -7,-7 -9,-9l2 0c4,0 5,7 10,9 2,0 3,1 4,-1 1,-1 2,-2 3,-4l0 -1c0,-2 0,-4 -1,-6 -1,-2 -2,-4 -3,-4 0,0 -1,0 -1,1 -1,1 -1,1 -1,2l-1 1c0,2 0,4 1,5 0,-2 1,-3 1,-4l1 0c1,0 1,0 2,1l0 0c0,1 0,2 0,2l-1 2c0,0 0,1 0,1 -1,0 -1,0 -1,0 0,0 -1,0 -2,-1l-2 -1c-1,-1 -2,-1 -2,-2 0,-1 0,-2 0,-4 0,-1 1,-2 2,-3 1,-2 3,-2 4,-2 0,0 1,0 1,1zm-5 -22c3,1 2,1 1,4l-2 -2c0,0 0,-2 1,-2zm-3 -17c0,0 0,0 0,0l0 0 -1 1c0,0 0,1 0,1 0,0 1,0 2,0 3,0 7,-1 10,2 0,1 1,2 0,3 -1,-1 -1,-2 -3,-2 -3,-1 -7,-1 -9,0 -1,0 -1,0 -2,0 -3,-1 1,-5 3,-5zm3 5c0,0 0,0 0,0l0 0 0 0c0,1 0,1 0,1 0,0 0,0 1,1 2,0 6,-1 7,1 1,1 1,2 1,3 -1,-1 -1,-2 -3,-2 -2,-1 -5,-1 -7,-1 0,0 0,0 -1,0 -2,0 1,-3 2,-3zm-7 22c0,0 1,0 2,0 1,1 2,2 3,4 1,2 1,5 0,8 0,3 -2,5 -4,6 -3,2 -7,0 -9,-3 -1,-1 -2,-2 -3,-4l2 0c1,0 1,1 2,2 1,1 2,3 4,4 1,0 2,0 3,-1 1,-1 2,-2 2,-4l0 -1c1,-2 1,-4 0,-6 -1,-2 -2,-4 -3,-4 -1,0 -1,0 -2,1 0,1 0,1 -1,2l0 1c-1,2 0,3 1,5 0,-2 0,-3 1,-4l0 0c1,0 2,0 2,1l1 0c-1,1 -1,2 -1,2l-1 2c0,0 0,1 0,1 0,0 0,0 0,0 -1,0 -2,0 -3,-1l-2 -1c-1,-1 -1,-1 -1,-2 -1,-1 -1,-2 -1,-4 1,-1 1,-2 2,-3 2,-2 3,-2 5,-2 0,0 0,0 1,1zm-5 -9c-1,1 -1,1 -2,1 0,1 0,1 0,2 0,0 0,0 0,0 1,0 1,0 1,0 0,0 0,0 0,-1 0,0 0,0 0,0 0,-1 1,-2 2,-2 0,0 -1,0 -2,0 0,0 -1,0 -1,0 -1,0 -1,-1 -1,-1 -1,0 -1,1 0,1 0,1 0,1 1,0 0,0 1,0 2,0z"/>
 </g>
</svg>
