<?xml version="1.0" encoding="utf-8"?>
<svg version="1.1" xmlns:xlink="http://www.w3.org/1999/xlink" width="25px" height="24px" xmlns="http://www.w3.org/2000/svg">
  <g transform="matrix(1 0 0 1 -15 -1379 )">
    <path d="M 13.2731119791667 16.359375  C 14.3744574652778 15.265625  14.9251302083333 13.859375  14.9251302083333 12.140625  C 14.9251302083333 11.8697916666667  14.892578125 11.5364583333333  14.8274739583333 11.140625  L 8.935546875 11.140625  L 8.935546875 13.203125  L 12.4674479166667 13.203125  C 12.4348958333333 13.453125  12.3453776041667 13.7135416666667  12.1988932291667 13.984375  C 12.0524088541667 14.2552083333333  11.8489583333333 14.53125  11.5885416666667 14.8125  C 11.328125 15.09375  10.9673394097222 15.3255208333333  10.5061848958333 15.5078125  C 10.0450303819444 15.6901041666667  9.521484375 15.78125  8.935546875 15.78125  C 7.861328125 15.78125  6.94444444444445 15.4114583333333  6.18489583333333 14.671875  C 5.42534722222222 13.9322916666667  5.04557291666667 13.0416666666667  5.04557291666667 12  C 5.04557291666667 10.9583333333333  5.42534722222222 10.0677083333333  6.18489583333333 9.328125  C 6.94444444444445 8.58854166666666  7.861328125 8.21875  8.935546875 8.21875  C 9.93381076388889 8.21875  10.7638888888889 8.52604166666666  11.42578125 9.140625  L 13.1184895833333 7.5625  C 11.9466145833333 6.52083333333333  10.5523003472222 6  8.935546875 6  C 7.19943576388889 6  5.72374131944444 6.5859375  4.50846354166667 7.7578125  C 3.29318576388889 8.9296875  2.685546875 10.34375  2.685546875 12  C 2.685546875 13.65625  3.29318576388889 15.0703125  4.50846354166667 16.2421875  C 5.72374131944444 17.4140625  7.19943576388889 18  8.935546875 18  C 10.7259114583333 18  12.1717664930556 17.453125  13.2731119791667 16.359375  Z M 20.5403645833333 14.578125  L 20.5403645833333 12.859375  L 22.314453125 12.859375  L 22.314453125 11.140625  L 20.5403645833333 11.140625  L 20.5403645833333 9.421875  L 18.75 9.421875  L 18.75 11.140625  L 16.9596354166667 11.140625  L 16.9596354166667 12.859375  L 18.75 12.859375  L 18.75 14.578125  L 20.5403645833333 14.578125  Z M 23.6246744791667 1.3203125  C 24.5415581597222 2.20052083333333  25 3.26041666666666  25 4.5  L 25 19.5  C 25 20.7395833333333  24.5415581597222 21.7994791666667  23.6246744791667 22.6796875  C 22.7077907986111 23.5598958333333  21.6037326388889 24  20.3125 24  L 4.6875 24  C 3.39626736111111 24  2.29220920138889 23.5598958333333  1.37532552083333 22.6796875  C 0.458441840277778 21.7994791666667  0 20.7395833333333  0 19.5  L 0 4.5  C 0 3.26041666666666  0.458441840277778 2.20052083333333  1.37532552083333 1.3203125  C 2.29220920138889 0.440104166666665  3.39626736111111 0  4.6875 0  L 20.3125 0  C 21.6037326388889 0  22.7077907986111 0.440104166666665  23.6246744791667 1.3203125  Z " fill-rule="nonzero" fill="#ffffff" stroke="none" transform="matrix(1 0 0 1 15 1379 )" />
  </g>
</svg>