<?xml version="1.0" encoding="utf-8"?>
<svg version="1.1" xmlns:xlink="http://www.w3.org/1999/xlink" width="32px" height="23px" xmlns="http://www.w3.org/2000/svg">
  <g transform="matrix(1 0 0 1 -495 -1379 )">
    <path d="M 19.3333333333333 16.1  L 21.3125 12.65  L 27.8958333333333 12.65  C 27.8819444444444 12.6140625  27.8645833333333 12.5631510416667  27.84375 12.497265625  C 27.8229166666667 12.4313802083333  27.8055555555556 12.3864583333333  27.7916666666667 12.3625  L 23.375 3.45  L 8.625 3.45  L 4.20833333333333 12.3625  C 4.19444444444445 12.3984375  4.17708333333333 12.4493489583333  4.15625 12.515234375  C 4.13541666666667 12.5811197916667  4.11805555555556 12.6260416666667  4.10416666666667 12.65  L 10.6875 12.65  L 12.6666666666667 16.1  L 19.3333333333333 16.1  Z M 31.4791666666667 10.97890625  C 31.8263888888889 11.7096354166667  32 12.4463541666667  32 13.1890625  L 32 21.85  C 32 22.1614583333333  31.8680555555556 22.4309895833333  31.6041666666667 22.65859375  C 31.3402777777778 22.8861979166667  31.0277777777778 23  30.6666666666667 23  L 1.33333333333333 23  C 0.972222222222222 23  0.659722222222222 22.8861979166667  0.395833333333333 22.65859375  C 0.131944444444444 22.4309895833333  0 22.1614583333333  0 21.85  L 0 13.1890625  C 0 12.4463541666667  0.173611111111111 11.7096354166667  0.520833333333333 10.97890625  L 5.47916666666667 1.06015625  C 5.61805555555556 0.760677083333331  5.87152777777778 0.509114583333332  6.23958333333333 0.305468750000001  C 6.60763888888889 0.101822916666663  6.97222222222222 0  7.33333333333333 0  L 24.6666666666667 0  C 25.0277777777778 0  25.3923611111111 0.101822916666663  25.7604166666667 0.305468750000001  C 26.1284722222222 0.509114583333332  26.3819444444444 0.760677083333331  26.5208333333333 1.06015625  L 31.4791666666667 10.97890625  Z " fill-rule="nonzero" fill="#ffffff" stroke="none" transform="matrix(1 0 0 1 495 1379 )" />
  </g>
</svg>