<?xml version="1.0" encoding="utf-8"?>
<svg version="1.1" xmlns:xlink="http://www.w3.org/1999/xlink" width="34px" height="34px" xmlns="http://www.w3.org/2000/svg">
  <g transform="matrix(1 0 0 1 -35 -2135 )">
    <path d="M 25.0277777777778 0  C 28.8842592592593 0  31.875 0.0817307692307689  34 0.245192307692307  L 34 5.63942307692308  L 27.8217592592593 5.63942307692308  C 25.5655864197531 5.63942307692308  24.0439814814815 5.88461538461539  23.2569444444444 6.375  C 22.4699074074074 6.86538461538461  22.0763888888889 7.60096153846154  22.0763888888889 8.58173076923077  L 22.0763888888889 13  L 33.6064814814815 13  L 32.0717592592593 18.4915865384615  L 22 18.4915865384615  L 22 34  L 10 34  L 10 18  L 0 18  L 0 13  L 10.0347222222222 13  L 10.0347222222222 7.98918269230769  C 10.0347222222222 5.45552884615384  11.3989197530864 3.49058493589743  14.1273148148148 2.09435096153846  C 16.8557098765432 0.69811698717949  20.4891975308642 0  25.0277777777778 0  Z " fill-rule="nonzero" fill="#ffffff" stroke="none" transform="matrix(1 0 0 1 35 2135 )" />
  </g>
</svg>