<?xml version="1.0" encoding="utf-8"?>
<svg version="1.1" xmlns:xlink="http://www.w3.org/1999/xlink" width="27px" height="23px" xmlns="http://www.w3.org/2000/svg">
  <defs>
    <mask fill="white" id="clip12">
      <path d="M 0 23  L 0 0  L 27 0  L 27 7.42184873949585  L 27 9.74117647058827  L 27 23  L 0 23  Z " fill-rule="evenodd" />
    </mask>
  </defs>
  <g transform="matrix(1 0 0 1 -312 -620 )">
    <path d="M 0 23  L 0 0  L 27 0  L 27 7.42184873949585  L 27 9.74117647058827  L 27 23  L 0 23  Z " fill-rule="nonzero" fill="#ffffff" stroke="none" transform="matrix(1 0 0 1 312 620 )" />
    <path d="M 0 23  L 0 0  L 27 0  L 27 7.42184873949585  L 27 9.74117647058827  L 27 23  L 0 23  Z " stroke-width="2" stroke="#000000" fill="none" transform="matrix(1 0 0 1 312 620 )" mask="url(#clip12)" />
  </g>
</svg>