<?xml version="1.0" encoding="utf-8"?>
<svg version="1.1" xmlns:xlink="http://www.w3.org/1999/xlink" width="24px" height="24px" xmlns="http://www.w3.org/2000/svg">
  <g transform="matrix(1 0 0 1 -264 -1379 )">
    <path d="M 1.328125 0  L 22.671875 0  C 23.0364583333333 0  23.3489583333333 0.130208333333333  23.609375 0.390624999999999  C 23.8697916666667 0.651041666666665  24 0.963541666666663  24 1.328125  L 24 22.671875  C 24 23.0364583333333  23.8697916666667 23.3489583333333  23.609375 23.609375  C 23.3489583333333 23.8697916666667  23.0364583333333 24  22.671875 24  L 16.5625 24  L 16.5625 14.703125  L 19.671875 14.703125  L 20.140625 11.078125  L 16.5625 11.078125  L 16.5625 8.765625  C 16.5625 8.18229166666666  16.6848958333333 7.74479166666666  16.9296875 7.453125  C 17.1744791666667 7.16145833333333  17.6510416666667 7.015625  18.359375 7.015625  L 20.265625 7  L 20.265625 3.765625  C 19.609375 3.671875  18.6822916666667 3.625  17.484375 3.625  C 16.0677083333333 3.625  14.9348958333333 4.04166666666666  14.0859375 4.875  C 13.2369791666667 5.70833333333333  12.8125 6.88541666666667  12.8125 8.40625  L 12.8125 11.078125  L 9.6875 11.078125  L 9.6875 14.703125  L 12.8125 14.703125  L 12.8125 24  L 1.328125 24  C 0.963541666666667 24  0.651041666666667 23.8697916666667  0.390625 23.609375  C 0.130208333333333 23.3489583333333  0 23.0364583333333  0 22.671875  L 0 1.328125  C 0 0.963541666666663  0.130208333333333 0.651041666666665  0.390625 0.390624999999999  C 0.651041666666667 0.130208333333333  0.963541666666667 0  1.328125 0  Z " fill-rule="nonzero" fill="#ffffff" stroke="none" transform="matrix(1 0 0 1 264 1379 )" />
  </g>
</svg>