<?xml version="1.0" encoding="utf-8"?>
<svg version="1.1" xmlns:xlink="http://www.w3.org/1999/xlink" width="28px" height="24px" xmlns="http://www.w3.org/2000/svg">
  <g transform="matrix(1 0 0 1 -810 -1379 )">
    <path d="M 21.4192708333333 9.234375  C 22.1848958333333 8.765625  22.8229166666667 8.19791666666666  23.3333333333333 7.53125  C 22.6527777777778 7.79166666666666  21.9175347222222 7.96875  21.1276041666667 8.0625  C 21.9539930555556 7.64583333333333  22.5190972222222 7.03645833333333  22.8229166666667 6.234375  C 22.0329861111111 6.63020833333333  21.21875 6.89583333333333  20.3802083333333 7.03125  C 19.6388888888889 6.34375  18.7092013888889 6  17.5911458333333 6  C 16.5338541666667 6  15.6315104166667 6.3203125  14.8841145833333 6.9609375  C 14.13671875 7.6015625  13.7630208333333 8.375  13.7630208333333 9.28125  C 13.7630208333333 9.58333333333333  13.7934027777778 9.83333333333333  13.8541666666667 10.03125  C 12.2864583333333 9.95833333333333  10.8159722222222 9.61979166666667  9.44270833333333 9.015625  C 8.06944444444444 8.41145833333333  6.90277777777778 7.60416666666666  5.94270833333333 6.59375  C 5.59027777777778 7.11458333333333  5.4140625 7.66666666666666  5.4140625 8.25  C 5.4140625 9.4375  5.96701388888889 10.3489583333333  7.07291666666667 10.984375  C 6.50173611111111 10.9739583333333  5.89409722222222 10.8385416666667  5.25 10.578125  L 5.25 10.609375  C 5.25 11.390625  5.55381944444444 12.0859375  6.16145833333333 12.6953125  C 6.76909722222222 13.3046875  7.51649305555556 13.6822916666667  8.40364583333333 13.828125  C 8.05121527777778 13.9114583333333  7.74131944444445 13.953125  7.47395833333333 13.953125  C 7.31597222222222 13.953125  7.07899305555556 13.9322916666667  6.76302083333333 13.890625  C 7.01822916666667 14.546875  7.47092013888889 15.0885416666667  8.12109375 15.515625  C 8.77126736111111 15.9427083333333  9.50954861111111 16.1614583333333  10.3359375 16.171875  C 8.92621527777778 17.109375  7.34027777777778 17.578125  5.578125 17.578125  C 5.26215277777778 17.578125  4.95833333333333 17.5625  4.66666666666667 17.53125  C 6.46527777777778 18.5104166666667  8.421875 19  10.5364583333333 19  C 11.8975694444444 19  13.1736111111111 18.8151041666667  14.3645833333333 18.4453125  C 15.5555555555556 18.0755208333333  16.5763888888889 17.5807291666667  17.4270833333333 16.9609375  C 18.2777777777778 16.3411458333333  19.0099826388889 15.6276041666667  19.6236979166667 14.8203125  C 20.2374131944444 14.0130208333333  20.6931423611111 13.1692708333333  20.9908854166667 12.2890625  C 21.2886284722222 11.4088541666667  21.4375 10.53125  21.4375 9.65625  C 21.4375 9.46875  21.4314236111111 9.328125  21.4192708333333 9.234375  Z M 26.4596354166667 1.3203125  C 27.4865451388889 2.20052083333333  28 3.26041666666666  28 4.5  L 28 19.5  C 28 20.7395833333333  27.4865451388889 21.7994791666667  26.4596354166667 22.6796875  C 25.4327256944444 23.5598958333333  24.1961805555556 24  22.75 24  L 5.25 24  C 3.80381944444444 24  2.56727430555556 23.5598958333333  1.54036458333333 22.6796875  C 0.513454861111111 21.7994791666667  0 20.7395833333333  0 19.5  L 0 4.5  C 0 3.26041666666666  0.513454861111111 2.20052083333333  1.54036458333333 1.3203125  C 2.56727430555556 0.440104166666665  3.80381944444444 0  5.25 0  L 22.75 0  C 24.1961805555556 0  25.4327256944444 0.440104166666665  26.4596354166667 1.3203125  Z " fill-rule="nonzero" fill="#ffffff" stroke="none" transform="matrix(1 0 0 1 810 1379 )" />
  </g>
</svg>